<svg xmlns="http://www.w3.org/2000/svg" width="22" height="22" viewBox="0 0 22 22">
    <path fill="#FFF" fill-rule="evenodd" d="M8.336 18.757c-1.274.002-2.384-.302-3.15-.844a2.867 2.867 0 0 1-.889-.983 2.787 2.787 0 0 1-.322-1.338c.002-.418.077-.781.217-1.115.207-.495.56-.926 1.032-1.323.418-.348.925-.668 1.492-.97l5.496 5.465c-.992.714-2.264 1.108-3.876 1.108zM6.592 3.717c.204-.199.463-.364.787-.482a3.404 3.404 0 0 1 1.166-.186c.842 0 1.444.245 1.84.615.396.373.605.886.607 1.505 0 .367-.086.681-.245.978-.238.44-.653.84-1.208 1.216-.496.336-1.096.647-1.75.956-.621-.642-1.07-1.157-1.36-1.618a3.138 3.138 0 0 1-.345-.718 2.388 2.388 0 0 1-.107-.724c0-.605.207-1.146.615-1.542zm14.5 17.911l-4.179-4.178c.569-.968.954-1.986 1.203-2.96.268-1.058.375-2.061.375-2.898v-.96h-3.615v.69c0 1.298-.194 2.504-.573 3.517l-4.21-4.21c1.116-.52 2.197-1.106 3.053-1.894a5.2 5.2 0 0 0 1.19-1.577 4.745 4.745 0 0 0 .454-2.08c0-.748-.146-1.447-.431-2.07-.427-.938-1.17-1.698-2.159-2.215C11.212.278 9.98 0 8.545 0 6.543-.002 4.967.632 3.897 1.632A5.09 5.09 0 0 0 2.27 5.377c-.002.87.18 1.632.588 2.392.354.663.868 1.324 1.572 2.101-1.087.559-2.122 1.218-2.926 2.093A5.672 5.672 0 0 0 .41 13.677 5.846 5.846 0 0 0 0 15.891c0 .917.19 1.765.565 2.52.563 1.13 1.538 2.034 2.851 2.64 1.314.612 2.965.935 4.92.935 1.505 0 2.804-.235 3.918-.645v-3.665l.02.04-.008-.031 3.96 3.943h4.866z"/>
</svg>
