<svg xmlns="http://www.w3.org/2000/svg" width="149" height="25" viewBox="0 0 149 25">
    <path fill="#000" fill-rule="evenodd" d="M54.846.006v24.036H50.66v-2.655h-.068c-.568 1.066-1.328 1.872-2.28 2.418-.952.544-2.053.816-3.3.816-1.203 0-2.293-.223-3.269-.665a6.704 6.704 0 0 1-2.482-1.921c-.682-.84-1.209-1.855-1.582-3.046-.376-1.192-.562-2.524-.562-3.998 0-1.452.193-2.767.577-3.948.386-1.179.93-2.189 1.634-3.028a7.289 7.289 0 0 1 2.502-1.94c.962-.454 2.025-.68 3.181-.68 1.27 0 2.37.278 3.301.832a6.645 6.645 0 0 1 2.098 1.984l.182.28h.068a30.565 30.565 0 0 1-.103-1.752 61.98 61.98 0 0 1-.029-1.346l-.003-.679V.006h4.321zm66.396 0v24.036h-4.185v-2.655h-.069c-.568 1.066-1.328 1.872-2.28 2.418-.952.544-2.053.816-3.3.816-1.202 0-2.293-.223-3.268-.665a6.708 6.708 0 0 1-2.483-1.921c-.682-.84-1.208-1.855-1.582-3.046-.375-1.192-.561-2.524-.561-3.998 0-1.452.192-2.767.578-3.948.385-1.179.929-2.189 1.632-3.028a7.295 7.295 0 0 1 2.502-1.94c.963-.454 2.025-.68 3.182-.68 1.27 0 2.37.278 3.3.832a6.645 6.645 0 0 1 2.098 1.984l.182.28h.069a30.035 30.035 0 0 1-.103-1.752 60.79 60.79 0 0 1-.03-1.346l-.003-.679V.006h4.321zM64.42 5.394c2.427 0 4.258.494 5.495 1.48 1.236.987 1.968 2.275 2.195 3.863h-4.117c-.318-1.61-1.52-2.416-3.608-2.416-1.02 0-1.786.204-2.296.612-.51.409-.766.93-.766 1.566 0 .408.113.737.34.987.227.25.545.459.953.629.408.17.896.312 1.463.425l1.872.375c.862.159 1.701.346 2.518.561a7.547 7.547 0 0 1 2.195.953c.646.42 1.162.976 1.548 1.667.385.693.579 1.594.579 2.706 0 .952-.194 1.792-.579 2.518a5.18 5.18 0 0 1-1.616 1.82c-.693.489-1.514.857-2.467 1.106-.953.25-1.986.374-3.097.374-2.609 0-4.634-.567-6.074-1.7-1.441-1.135-2.229-2.621-2.365-4.458h4.152c.18 1.088.657 1.877 1.429 2.364.77.489 1.735.732 2.892.732 1.202 0 2.087-.232 2.654-.698.567-.465.85-1.06.85-1.786 0-.454-.113-.822-.34-1.106-.226-.283-.544-.522-.952-.715a6.91 6.91 0 0 0-1.48-.476 95.278 95.278 0 0 0-1.923-.391 26.38 26.38 0 0 1-2.484-.579 7.76 7.76 0 0 1-2.11-.936 4.546 4.546 0 0 1-1.48-1.565c-.374-.647-.562-1.48-.562-2.501 0-.862.176-1.628.528-2.297a5.005 5.005 0 0 1 1.464-1.701c.623-.465 1.377-.817 2.262-1.055.885-.239 1.86-.358 2.927-.358zm74.812 0c1.406 0 2.676.245 3.811.732a8.564 8.564 0 0 1 2.91 2.025 8.946 8.946 0 0 1 1.854 3.045c.43 1.169.647 2.433.647 3.794 0 1.34-.216 2.592-.647 3.76a8.935 8.935 0 0 1-1.855 3.046 8.736 8.736 0 0 1-2.909 2.042c-1.135.499-2.405.749-3.811.749-1.407 0-2.683-.25-3.828-.75a8.688 8.688 0 0 1-2.927-2.041 9.143 9.143 0 0 1-1.871-3.045c-.443-1.169-.664-2.422-.664-3.76 0-1.362.221-2.626.664-3.795a9.155 9.155 0 0 1 1.871-3.045 8.519 8.519 0 0 1 2.927-2.025c1.145-.487 2.421-.732 3.828-.732zm-49.316.477v11.638c0 1.088.295 1.928.885 2.518.59.59 1.43.884 2.518.884 1.225 0 2.2-.413 2.927-1.242.726-.827 1.089-1.876 1.089-3.147V5.87h4.287v18.171h-4.185v-2.586h-.069c-.658.999-1.411 1.758-2.262 2.28-.85.521-1.923.782-3.216.782-1.996 0-3.545-.572-4.645-1.718-1.1-1.145-1.65-2.705-1.65-4.68V5.87h4.321zM8.643 5.394c1.044 0 1.968.08 2.773.239.806.159 1.503.43 2.093.816 1.724 1.044 2.586 2.768 2.586 5.172v9.562c0 .75.063 1.328.188 1.736.124.408.29.68.493.817v.306h-4.185c-.16-.204-.29-.493-.392-.868-.102-.374-.176-.868-.22-1.48h-.069a7.619 7.619 0 0 1-2.212 1.99c-.885.533-2.053.8-3.505.8a8.595 8.595 0 0 1-2.467-.34c-.76-.226-1.412-.567-1.956-1.02a4.891 4.891 0 0 1-1.294-1.685C.16 20.769 0 19.993 0 19.109c0-1.022.187-1.867.562-2.536a4.408 4.408 0 0 1 1.548-1.617c.657-.408 1.44-.72 2.348-.935a28.054 28.054 0 0 1 2.994-.528c1.498-.18 2.62-.436 3.37-.765.748-.329 1.122-.902 1.122-1.719 0-.794-.272-1.43-.817-1.905-.544-.477-1.36-.715-2.45-.715-1.225 0-2.138.261-2.739.783s-.924 1.236-.97 2.144H.885a5.672 5.672 0 0 1 .527-2.23 5.42 5.42 0 0 1 1.464-1.888c.646-.545 1.445-.98 2.398-1.31.953-.329 2.076-.494 3.37-.494zM79.906.086v5.785h3.64v3.41h-3.64v9.725c0 .659.169 1.105.51 1.345.34.238.815.356 1.429.356.226 0 .47-.01.731-.034.262-.022.482-.056.663-.102h.205v3.37c-.362.067-.783.13-1.258.185-.477.057-1.01.087-1.6.087a8.49 8.49 0 0 1-2.007-.222c-.613-.147-1.136-.385-1.565-.715a3.234 3.234 0 0 1-1.004-1.31c-.24-.544-.358-1.213-.358-2.008V9.281H72.86V5.87h2.79V.086h4.255zM28.814 5.395c1.973 0 3.51.56 4.61 1.684 1.1 1.123 1.65 2.671 1.65 4.645v12.318h-4.32V12.438c0-1.089-.302-1.94-.902-2.552-.602-.613-1.458-.919-2.57-.919-.612 0-1.168.108-1.667.324-.499.216-.93.522-1.293.918a4.313 4.313 0 0 0-.851 1.412 5.008 5.008 0 0 0-.306 1.77v10.65h-4.322V5.872h4.22v2.654h.102c.59-1.02 1.355-1.798 2.297-2.331.941-.533 2.059-.8 3.352-.8zm99.272.476v18.17h-4.322V5.872h4.322zm-116.04 8.881c-.431.273-.964.505-1.6.698-.635.193-1.281.357-1.939.493-1.339.25-2.37.573-3.096.97-.727.397-1.09 1.095-1.09 2.093 0 .476.086.88.256 1.208.17.329.396.59.68.783.284.193.618.329 1.004.408.386.08.783.119 1.191.119.749 0 1.407-.12 1.974-.357a4.573 4.573 0 0 0 1.43-.92c.385-.373.68-.804.884-1.292.204-.488.306-.992.306-1.514v-2.689zm127.152-6.159c-.794 0-1.498.16-2.11.477a4.248 4.248 0 0 0-1.531 1.344c-.409.578-.715 1.258-.919 2.041a10.019 10.019 0 0 0-.306 2.535c0 .908.102 1.747.306 2.519.204.77.51 1.44.919 2.007.408.567.919 1.01 1.53 1.327.613.318 1.317.477 2.11.477.795 0 1.492-.159 2.094-.477a4.354 4.354 0 0 0 1.514-1.327c.408-.567.72-1.236.936-2.007.215-.772.323-1.611.323-2.519 0-.907-.108-1.752-.323-2.535-.216-.783-.528-1.463-.936-2.041a4.292 4.292 0 0 0-1.514-1.344c-.602-.318-1.3-.477-2.093-.477zm-93.301.17c-.728 0-1.369.154-1.924.46a3.826 3.826 0 0 0-1.377 1.293c-.365.555-.637 1.213-.818 1.973-.181.76-.272 1.583-.272 2.467 0 1.816.363 3.29 1.09 4.424.725 1.135 1.824 1.7 3.3 1.7.793 0 1.492-.146 2.092-.44.6-.295 1.101-.716 1.498-1.26.395-.544.697-1.192.9-1.939a9.262 9.262 0 0 0 .307-2.45 9.58 9.58 0 0 0-.307-2.502c-.203-.76-.505-1.418-.9-1.973a4.11 4.11 0 0 0-1.498-1.293c-.6-.306-1.3-.46-2.091-.46zm66.396 0c-.728 0-1.369.154-1.923.46a3.83 3.83 0 0 0-1.378 1.293c-.364.555-.636 1.213-.818 1.973-.181.76-.272 1.583-.272 2.467 0 1.816.363 3.29 1.09 4.424.726 1.135 1.824 1.7 3.3 1.7.793 0 1.492-.146 2.093-.44.6-.295 1.1-.716 1.498-1.26.397-.544.697-1.192.9-1.939a9.262 9.262 0 0 0 .306-2.45 9.58 9.58 0 0 0-.306-2.502c-.203-.76-.503-1.418-.9-1.973a4.11 4.11 0 0 0-1.498-1.293c-.6-.306-1.3-.46-2.092-.46zM128.12 0v4.185h-4.424V0h4.424z"/>
</svg>
